<svg width="1038" height="455" viewBox="0 0 1038 455" fill="none" xmlns="http://www.w3.org/2000/svg">
<path d="M325.779 337.319C328.616 327.681 332.616 311.216 332.257 310.633C332.088 310.36 330.447 309.802 328.609 309.394C320.81 307.67 311.691 303.592 306.04 299.308C299.682 294.492 293.69 285.461 291.008 276.661C289.042 270.224 288.404 262.159 289.211 254.032C290.004 246.073 291.339 239.233 295.776 220.419C297.507 213.088 299.224 205.527 299.593 203.616C300.772 197.534 299.734 198.11 309.484 198.11C314.794 198.11 317.997 198.324 317.79 198.662C317.194 199.631 320.831 199.842 340.642 199.993C351.32 200.073 360.209 200.294 360.395 200.48C360.795 200.883 360.019 204.94 358.467 210.546C357.854 212.764 357.464 214.765 357.606 214.992C357.743 215.22 357.319 216.327 356.657 217.452C355.995 218.576 355.378 220.75 355.282 222.274C355.12 224.907 354.923 225.759 353.83 228.553C352.179 232.775 351.013 239.743 351.41 243.017C351.651 245.025 352.096 246.442 352.461 246.37C352.81 246.304 353.261 247.308 353.468 248.605C353.672 249.899 354.251 251.779 354.754 252.783C356.051 255.377 360.053 259.427 362.663 260.779C368.156 263.632 378.758 264.387 386.246 262.462C392.032 260.976 394.532 259.623 398.738 255.712C400.665 253.918 402.241 252.662 402.241 252.917C402.241 253.7 405.13 249.554 406.623 246.632C407.399 245.118 408.15 243.162 408.299 242.289C408.447 241.413 410.509 233.137 412.877 223.896C415.246 214.654 417.501 205.226 417.887 202.946L418.59 198.803L427.568 198.376C432.509 198.144 445.252 198.082 455.892 198.244L475.241 198.534L476.793 199.983C478.275 201.363 478.855 203.785 477.927 204.716C477.693 204.951 477.2 206.493 476.824 208.145C476.452 209.797 475.459 213.885 474.621 217.231C473.78 220.577 472.866 224.227 472.587 225.345C472.311 226.459 471.656 229.018 471.138 231.033C470.621 233.048 469.977 235.914 469.708 237.408C468.901 241.865 467.587 246.715 466.974 247.498C466.656 247.902 466.229 249.354 466.018 250.73C465.812 252.103 464.481 255.722 463.067 258.764C461.65 261.81 460.633 264.532 460.805 264.812C460.978 265.095 460.857 265.326 460.536 265.326C460.216 265.326 459.044 266.954 457.93 268.944C456.144 272.142 454.403 274.533 450.024 279.811C447.676 282.639 441.387 288.821 438.829 290.818C437.398 291.933 435.357 293.564 434.295 294.44C433.23 295.317 432.106 296.034 431.799 296.034C431.492 296.034 430.54 296.683 429.689 297.476C428.837 298.273 427.51 299.08 426.744 299.273C425.134 299.677 423.903 300.957 424.379 301.729C425.124 302.944 409.143 308.394 399 310.385L393.88 311.388L392.084 317.763C391.094 321.268 389.539 327.329 388.625 331.231L386.964 338.326L356.219 338.33C327.213 338.33 325.496 338.275 325.779 337.319Z" fill="#5B759C" stroke="#5B759C"/>
<path d="M763.899 309.819C764.757 307.57 770.619 286.158 776.977 262.035C777.504 260.037 777.914 259.551 779.328 259.24C782.059 258.637 814.765 235.297 843.609 213.361C855.659 204.202 855.721 204.14 856.576 201.132C857.048 199.469 857.752 198.11 858.145 198.11C858.538 198.11 858.707 198.496 858.521 198.979C858.231 199.745 861.975 199.862 889.82 199.973C907.214 200.042 922.488 200.045 923.753 199.983C925.022 199.918 926.401 199.99 926.812 200.142C927.511 200.397 923.371 204.119 916.996 208.966C911.451 213.174 907.159 216.614 904.297 219.132C899.343 223.489 897.302 225.138 896.019 225.814C894.65 226.535 886.42 232.927 882.628 236.218C881.252 237.408 879.049 239.115 877.725 240.012C876.405 240.909 874.805 242.082 874.17 242.62C873.536 243.155 872.388 243.952 871.619 244.386C870.85 244.825 867.282 247.536 863.692 250.413C858.272 254.756 856.917 256.167 855.721 258.709C854.928 260.396 854.276 262.052 854.276 262.39C854.276 262.818 866.089 263.011 893.051 263.025C920.654 263.035 931.525 263.218 930.776 263.656C929.866 264.187 929.832 264.401 930.525 265.232C931.456 266.354 931.483 269.168 930.576 270.828C930.228 271.466 929.752 273.16 929.521 274.595C929.29 276.03 928.901 277.461 928.653 277.782C928.408 278.1 927.498 281.359 926.629 285.023C925.76 288.69 924.85 292.208 924.605 292.847C923.453 295.837 922.857 297.766 922.005 301.25C920.361 307.956 920.336 308.325 921.481 309.167C922.364 309.815 914.286 309.939 871.781 309.939C843.864 309.939 808.096 310.115 792.292 310.326C766.571 310.671 763.596 310.619 763.899 309.819Z" fill="#5B759C" stroke="#5B759C"/>
<path d="M510.837 309.305C505.337 308.38 501.545 306.548 497.742 302.971C493.546 299.028 491.205 294.792 490.339 289.566C489.45 284.233 491.332 274.057 499.607 239.388C503.389 223.537 507.082 207.896 507.813 204.63L509.14 198.689H539.871C556.772 198.689 570.601 198.838 570.601 199.021C570.601 199.2 567.884 209.956 564.564 222.92C561.244 235.887 558.234 247.871 557.878 249.557C556.551 255.874 559.327 260.938 564.957 262.459C566.577 262.897 572.156 263.052 581.565 262.918C597.939 262.687 598.018 262.663 600.4 257.433C601.19 255.698 604.945 241.844 608.741 226.642C612.537 211.443 615.719 198.934 615.809 198.841C615.895 198.752 629.7 198.748 646.48 198.831L676.993 198.979L671.639 219.839C666.984 237.97 650.394 303.889 649.363 308.346L648.994 309.939L581.403 309.87C544.225 309.836 512.471 309.581 510.837 309.305Z" fill="#5B759C" stroke="#5B759C"/>
<path d="M676.924 309.532C677.321 308.287 683.468 283.384 696.07 232.006C700.37 214.478 703.986 199.814 704.107 199.414C704.283 198.845 711.106 198.689 735.689 198.689H767.043L764.813 206.658C762.292 215.644 741.13 300.729 740.026 306.317L739.309 309.939H712.413C697.618 309.939 683.499 310.112 681.034 310.319C676.728 310.688 676.569 310.657 676.924 309.532Z" fill="#5B759C" stroke="#5B759C"/>
<path d="M91.8688 305.448C92.3481 303.616 94.7478 293.123 97.2026 282.129L101.668 262.138L143.989 261.828C176.561 261.59 186.846 261.345 188.621 260.765C198.044 257.674 207.071 248.536 208.315 240.83L208.653 238.739L174.996 238.519C145.462 238.326 140.883 238.177 137.594 237.301C126.171 234.262 117.907 226.735 115.335 217.028C114.842 215.172 114.542 210.925 114.538 205.789L114.531 197.53H196.186C261.439 197.53 277.723 197.675 277.254 198.255C276.934 198.655 275.844 202.622 274.837 207.072C273.827 211.522 272.858 215.396 272.686 215.679C272.513 215.962 272.286 217.511 272.179 219.118C272.076 220.726 271.717 222.316 271.386 222.65C271.055 222.985 270.783 224.065 270.783 225.055C270.783 226.041 270.548 227.097 270.259 227.401C269.366 228.342 267.393 235.821 266.211 242.755C265.59 246.404 264.677 250.358 264.184 251.544C263.691 252.728 263.287 254.294 263.287 255.022C263.291 256.226 262.677 258.437 259.129 269.958C257.233 276.119 255.412 279.338 251.016 284.298C245.479 290.553 239.756 294.796 231.574 298.725C229.83 299.56 228.013 300.474 227.54 300.75C224.279 302.644 219.583 304.758 217.952 305.069C216.886 305.269 216.145 305.638 216.297 305.89C216.762 306.642 209.408 307.67 199.589 308.222C194.507 308.504 167.997 308.749 140.676 308.76L91 308.78L91.8688 305.448Z" fill="#5B759C" stroke="#5B759C"/>
<path d="M709.855 175.077C710.086 174.521 712.737 164.024 715.75 151.757C718.76 139.487 721.315 129.121 721.429 128.724C721.584 128.155 728.293 128 752.494 128C769.471 128 783.358 128.207 783.358 128.459C783.358 128.711 782.731 131.125 781.962 133.819C781.193 136.514 779.228 143.934 777.597 150.309C775.966 156.68 774.394 162.831 774.098 163.969C773.687 165.57 773.28 166.035 772.319 165.997C771.25 165.96 770.974 166.442 770.371 169.43C769.667 172.914 769.774 174.352 770.736 174.352C771.019 174.352 771.25 174.746 771.25 175.222C771.25 175.984 767.433 176.091 740.34 176.091C711.13 176.091 709.455 176.036 709.855 175.077Z" fill="#5B759C" stroke="#5B759C"/>
<path d="M117.99 175.867C117.99 175.146 121.634 165.332 121.996 165.083C122.227 164.925 123.147 163.49 124.047 161.896C127.974 154.935 137.194 143.661 138.983 143.634C139.328 143.63 140.638 142.578 141.897 141.295C143.152 140.015 146.006 138.052 148.237 136.934C150.468 135.82 152.685 134.406 153.161 133.799C153.661 133.161 156.215 132.053 159.215 131.181C169.838 128.083 171.303 128.024 239.397 128.01L302.285 128L302.127 130.001C302.041 131.101 301.561 132.471 301.065 133.043C295.493 139.456 287.174 149.426 282.309 155.521C279.002 159.664 274.537 165.107 272.386 167.615C268.597 172.031 267.7 173.976 269.197 174.515C269.593 174.659 267.973 174.932 265.594 175.122C260.501 175.532 117.99 176.25 117.99 175.867Z" fill="#5B759C" stroke="#5B759C"/>
<path d="M315.756 175.787C315.756 175.622 316.39 175.242 317.166 174.946C317.942 174.649 319.035 173.676 319.597 172.786C323.538 166.525 332.361 156.49 337.953 151.909C344.255 146.749 349.644 142.885 354.364 140.15C357.23 138.487 359.574 136.928 359.574 136.683C359.574 136.214 366.618 133.316 371.393 131.826C381.778 128.583 383.112 128.428 402.817 128.148C427.72 127.8 436.471 128.838 447.879 133.495C456.116 136.859 464.625 143.42 469.725 150.343C473.935 156.063 478.131 166.301 479.268 173.628L479.651 176.091H397.703C352.63 176.091 315.756 175.957 315.756 175.787Z" fill="#5B759C" stroke="#5B759C"/>
<path d="M514.915 175.077C515.474 173.311 523.183 140.722 524.58 134.23L525.917 128.003L557.234 128C586.916 128 588.536 128.052 588.23 129.025C587.45 131.494 578.645 165.577 577.497 170.568L576.224 176.091H545.411C516.325 176.091 514.615 176.036 514.915 175.077Z" fill="#5B759C" stroke="#5B759C"/>
<path d="M622.018 175.315C622.122 174.884 624.801 164.069 627.973 151.281L633.737 128.024L664.44 128.014C688.92 128.003 695.143 128.148 695.143 128.738C695.143 129.142 692.709 138.877 689.733 150.371C686.754 161.861 684.137 172.352 683.917 173.68L683.51 176.091H652.673C627.149 176.091 621.863 175.957 622.018 175.315Z" fill="#5B759C" stroke="#5B759C"/>
<path d="M424.152 301.319C424.152 300.622 425.334 299.732 426.91 299.246C427.63 299.025 428.903 298.207 429.73 297.438C430.561 296.665 431.492 296.034 431.799 296.034C432.106 296.034 433.23 295.317 434.295 294.44C435.357 293.564 437.398 291.932 438.829 290.818C441.387 288.821 447.676 282.639 450.024 279.811C454.403 274.533 456.144 272.142 457.93 268.944C459.043 266.954 460.216 265.326 460.536 265.326C460.857 265.326 460.978 265.095 460.805 264.812C460.633 264.532 461.65 261.81 463.067 258.764C464.481 255.722 465.812 252.103 466.018 250.73C466.229 249.354 466.656 247.902 466.973 247.498C467.587 246.715 468.901 241.865 469.708 237.408C469.976 235.914 470.621 233.048 471.138 231.033C471.656 229.018 472.311 226.459 472.586 225.345C472.866 224.227 473.779 220.577 474.621 217.231C475.459 213.885 476.451 209.797 476.824 208.145C477.2 206.492 477.693 204.95 477.927 204.716C478.817 203.819 478.344 201.046 477.196 200.428C475.193 199.352 475.938 198.689 479.148 198.689H482.251L480.858 203.471C480.089 206.099 477.255 217.235 474.562 228.215C468.828 251.572 467.325 256.336 463.015 264.801C455.196 280.169 445.349 290.48 430.192 299.18C425.655 301.785 424.152 302.316 424.152 301.319Z" fill="#5B759C" stroke="#5B759C"/>
<path d="M216.311 305.907C216.149 305.645 216.886 305.269 217.952 305.069C219.583 304.758 224.279 302.644 227.54 300.75C228.013 300.474 229.83 299.56 231.574 298.725C239.756 294.796 245.479 290.553 251.016 284.298C255.412 279.338 257.233 276.119 259.129 269.958C262.677 258.437 263.291 256.226 263.287 255.022C263.287 254.294 263.69 252.728 264.184 251.544C264.677 250.358 265.59 246.404 266.211 242.755C267.393 235.821 269.366 228.342 270.259 227.401C270.548 227.097 270.783 226.041 270.783 225.055C270.783 224.065 271.055 222.985 271.386 222.65C271.717 222.316 272.076 220.726 272.179 219.118C272.286 217.511 272.513 215.962 272.686 215.679C272.858 215.396 273.827 211.522 274.837 207.072C276.72 198.758 277.216 197.53 278.702 197.53C279.306 197.53 279.471 197.924 279.25 198.834C279.078 199.552 276.216 211.091 272.896 224.475C269.572 237.86 265.766 253.504 264.432 259.24C261.863 270.3 259.85 275.957 256.722 280.945C250.623 290.67 234.839 301.329 220.772 305.227C218.479 305.865 216.473 306.169 216.311 305.907Z" fill="#5B759C" stroke="#5B759C"/>
<path d="M920.788 308.48C920.605 307.997 920.599 307.021 920.774 306.307C920.95 305.596 921.509 303.32 922.012 301.25C922.857 297.769 923.45 295.851 924.605 292.847C924.85 292.208 925.76 288.69 926.629 285.023C927.498 281.359 928.408 278.1 928.653 277.782C928.901 277.461 929.29 276.03 929.521 274.595C929.752 273.16 930.228 271.466 930.576 270.828C931.487 269.165 931.456 266.354 930.518 265.226C929.814 264.38 929.863 264.177 930.876 263.632C932.069 262.99 934.997 262.763 934.997 263.315C934.997 263.484 934.207 266.288 933.242 269.545C930.907 277.413 923.67 304.441 923.164 307.187C922.75 309.415 921.419 310.14 920.788 308.48Z" fill="#5B759C" stroke="#5B759C"/>
<path d="M402.244 252.835C402.248 252.535 402.779 251.503 403.427 250.548C404.078 249.592 405.375 247.312 406.316 245.48C408.071 242.051 408.971 241.044 408.016 243.576C406.668 247.132 402.234 254.249 402.244 252.835Z" fill="#5B759C" stroke="#5B759C"/>
<path d="M317.004 174.366C317.111 174.052 318.838 171.465 320.841 168.612C329.761 155.921 342.832 144.672 357.254 137.279C361.701 134.999 359.536 137.148 354.365 140.15C349.644 142.885 344.256 146.749 337.953 151.909C332.305 156.539 325.303 164.528 318.921 173.628C318.014 174.925 316.635 175.453 317.004 174.366Z" fill="#5B759C" stroke="#5B759C"/>
<path d="M854.98 260.255C855.104 260.013 855.625 258.896 856.138 257.768C856.762 256.401 859.272 253.952 863.648 250.447C867.264 247.55 870.85 244.825 871.619 244.386C872.388 243.952 873.536 243.155 874.17 242.62C874.805 242.082 876.405 240.909 877.725 240.012C879.049 239.115 881.252 237.408 882.628 236.218C886.42 232.927 894.65 226.535 896.019 225.814C897.302 225.138 899.343 223.489 904.297 219.132C907.159 216.614 911.452 213.174 916.996 208.966C922.191 205.016 927.408 200.525 927.125 200.242C926.963 200.08 911.493 199.914 892.744 199.876C873.994 199.838 858.531 199.679 858.379 199.528C857.131 198.275 862.151 198.113 898.046 198.251L936.848 198.4L925.688 207.179C900.701 226.838 885.348 238.595 865.396 253.349C856.093 260.227 854.428 261.331 854.98 260.255Z" fill="#5B759C" stroke="#5B759C"/>
<path d="M947.971 173.773C947.454 172.935 948.254 167.902 949.122 166.505C949.529 165.853 950.136 163.548 950.47 161.385C950.808 159.222 951.325 157.149 951.622 156.777C951.922 156.408 952.346 154.928 952.567 153.496C953.015 150.598 955.059 142.619 956.949 136.4C957.625 134.171 958.349 131.432 958.559 130.318C958.845 128.807 959.269 128.241 960.231 128.103C960.941 128.003 961.521 128.162 961.521 128.459C961.521 128.752 960.124 133.923 958.421 139.943C956.714 145.962 953.925 156.166 952.222 162.613C950.519 169.064 948.946 174.346 948.726 174.349C948.505 174.352 948.167 174.094 947.971 173.773Z" fill="#5B759C" stroke="#5B759C"/>
<path d="M351.854 246.142C350.655 242.32 351.427 235.307 353.758 228.818C354.044 228.025 354.464 226.849 354.695 226.214C354.923 225.576 355.188 223.803 355.282 222.274C355.378 220.75 355.995 218.576 356.657 217.452C357.319 216.327 357.743 215.22 357.605 214.992C357.464 214.765 357.854 212.764 358.467 210.546C360.019 204.94 360.795 200.883 360.395 200.48C360.209 200.293 351.32 200.073 340.642 199.993C320.831 199.842 317.194 199.631 317.79 198.662C318.2 197.996 362.836 197.896 363.243 198.558C363.394 198.807 361.201 207.996 358.371 218.983C355.537 229.971 353.113 240.616 352.978 242.637C352.737 246.339 352.32 247.633 351.854 246.142Z" fill="#5B759C" stroke="#5B759C"/>
<path d="M769.946 173.628C769.795 173.231 769.981 171.341 770.36 169.43C770.919 166.629 771.267 165.953 772.16 165.953C773.453 165.953 773.456 165.997 772.401 170.734C771.653 174.097 770.598 175.342 769.946 173.628Z" fill="#5B759C" stroke="#5B759C"/>
<path d="M402.479 250.078C406.32 244.324 408.661 237.777 412.653 221.654C414.698 213.409 416.446 207.182 416.542 207.821C416.639 208.455 414.994 215.855 412.888 224.258C408.943 240.005 406.678 246.118 402.892 251.272C400.076 255.104 399.748 254.166 402.479 250.078Z" fill="#5B759C" stroke="#5B759C"/>
<path d="M119.744 169.064C119.706 167.691 122.437 160.592 124.164 157.549C126.768 152.979 131.077 147.483 133.936 145.096L136.708 142.782L133.484 146.6C127.974 153.127 124.099 159.409 121.189 166.532C120.406 168.443 119.755 169.582 119.744 169.064Z" fill="#5B759C" stroke="#5B759C"/>
<path d="M268.476 173.266C268.476 172.666 270.234 170.123 272.386 167.615C274.537 165.107 279.002 159.664 282.309 155.521C287.191 149.405 295.886 138.987 301.092 133.016C301.603 132.429 302.061 131.125 302.113 130.122C302.196 128.486 302.413 128.269 304.154 128.104C307.657 127.765 307.533 128.797 303.516 133.326C298.682 138.78 280.499 160.789 274.53 168.409C269.993 174.201 268.476 175.418 268.476 173.266Z" fill="#5B759C" stroke="#5B759C"/>
<path d="M777.594 259.289C777.594 259.089 778.214 258.685 778.973 258.395C779.731 258.106 783.3 255.853 786.899 253.393C799.508 244.776 850.218 207.32 854.132 203.736C855.383 202.588 856.49 202.65 855.766 203.829C854.77 205.447 800.029 245.918 786.53 255.015C781.362 258.499 777.594 260.3 777.594 259.289Z" fill="#5B759C" stroke="#5B759C"/>
<path d="M122.317 164.038C123.334 160.492 129.602 150.895 134.398 145.531C137.452 142.116 144.934 136.886 149.947 134.658C154.791 132.505 153.64 134.182 148.475 136.8C146.1 138.004 143.134 140.032 141.883 141.309C140.635 142.582 139.345 143.63 139.018 143.634C138.29 143.647 132.136 149.974 129.553 153.372C128.512 154.738 126.371 157.998 124.796 160.613C123.22 163.231 122.106 164.773 122.317 164.038Z" fill="#5B759C" stroke="#5B759C"/>
<path d="M799.722 174.86C801.039 170.22 810.531 133.55 811.062 131.043L811.706 128H885.383H959.059L958.614 130.173C958.369 131.367 957.614 134.171 956.942 136.4C955.042 142.692 953.012 150.619 952.567 153.496C952.346 154.928 951.922 156.408 951.622 156.777C951.325 157.149 950.808 159.222 950.47 161.385C950.136 163.548 949.529 165.853 949.122 166.505C947.988 168.326 947.471 173.111 948.302 174.114C948.685 174.58 948.822 175.142 948.605 175.36C948.384 175.581 914.71 175.863 873.77 175.994L799.332 176.232L799.722 174.86Z" fill="#5B759C" stroke="#5B759C"/>
<path d="M311.779 327.319C314.616 317.681 318.616 301.216 318.257 300.633C318.088 300.36 316.447 299.802 314.609 299.394C306.81 297.67 297.691 293.592 292.04 289.308C285.682 284.492 279.69 275.461 277.008 266.661C275.042 260.224 274.404 252.159 275.211 244.032C276.004 236.073 277.339 229.233 281.776 210.419C283.507 203.088 285.224 195.527 285.593 193.616C286.772 187.534 285.734 188.11 295.484 188.11C300.794 188.11 303.997 188.324 303.79 188.662C303.194 189.631 306.831 189.842 326.642 189.993C337.32 190.073 346.209 190.294 346.395 190.48C346.795 190.883 346.019 194.94 344.467 200.546C343.854 202.764 343.464 204.765 343.606 204.992C343.743 205.22 343.319 206.327 342.657 207.452C341.995 208.576 341.378 210.75 341.282 212.274C341.12 214.907 340.923 215.759 339.83 218.553C338.179 222.775 337.013 229.743 337.41 233.017C337.651 235.025 338.096 236.442 338.461 236.37C338.81 236.304 339.261 237.308 339.468 238.605C339.672 239.899 340.251 241.779 340.754 242.783C342.051 245.377 346.053 249.427 348.663 250.779C354.156 253.632 364.758 254.387 372.246 252.462C378.032 250.976 380.532 249.623 384.738 245.712C386.665 243.918 388.241 242.662 388.241 242.917C388.241 243.7 391.13 239.554 392.623 236.632C393.399 235.118 394.15 233.162 394.299 232.289C394.447 231.413 396.509 223.137 398.877 213.896C401.246 204.654 403.501 195.226 403.887 192.946L404.59 188.803L413.568 188.376C418.509 188.144 431.252 188.082 441.892 188.244L461.241 188.534L462.793 189.983C464.275 191.363 464.855 193.785 463.927 194.716C463.693 194.951 463.2 196.493 462.824 198.145C462.452 199.797 461.459 203.885 460.621 207.231C459.78 210.577 458.866 214.227 458.587 215.345C458.311 216.459 457.656 219.018 457.138 221.033C456.621 223.048 455.977 225.914 455.708 227.408C454.901 231.865 453.587 236.715 452.974 237.498C452.656 237.902 452.229 239.354 452.018 240.73C451.812 242.103 450.481 245.722 449.067 248.764C447.65 251.81 446.633 254.532 446.805 254.812C446.978 255.095 446.857 255.326 446.536 255.326C446.216 255.326 445.044 256.954 443.93 258.944C442.144 262.142 440.403 264.533 436.024 269.811C433.676 272.639 427.387 278.821 424.829 280.818C423.398 281.933 421.357 283.564 420.295 284.44C419.23 285.317 418.106 286.034 417.799 286.034C417.492 286.034 416.54 286.683 415.689 287.476C414.837 288.273 413.51 289.08 412.744 289.273C411.134 289.677 409.903 290.957 410.379 291.729C411.124 292.944 395.143 298.394 385 300.385L379.88 301.388L378.084 307.763C377.094 311.268 375.539 317.329 374.625 321.231L372.964 328.326L342.219 328.33C313.213 328.33 311.496 328.275 311.779 327.319Z" fill="#80A1BA" stroke="#80A1BA"/>
<path d="M749.899 299.819C750.757 297.57 756.619 276.158 762.977 252.035C763.504 250.037 763.914 249.551 765.328 249.24C768.059 248.637 800.765 225.297 829.609 203.361C841.659 194.202 841.721 194.14 842.576 191.132C843.048 189.469 843.752 188.11 844.145 188.11C844.538 188.11 844.707 188.496 844.521 188.979C844.231 189.745 847.975 189.862 875.82 189.973C893.214 190.042 908.488 190.045 909.753 189.983C911.022 189.918 912.401 189.99 912.812 190.142C913.511 190.397 909.371 194.119 902.996 198.966C897.451 203.174 893.159 206.614 890.297 209.132C885.343 213.489 883.302 215.138 882.019 215.814C880.65 216.535 872.42 222.927 868.628 226.218C867.252 227.408 865.049 229.115 863.725 230.012C862.405 230.909 860.805 232.082 860.17 232.62C859.536 233.155 858.388 233.952 857.619 234.386C856.85 234.825 853.282 237.536 849.692 240.413C844.272 244.756 842.917 246.167 841.721 248.709C840.928 250.396 840.276 252.052 840.276 252.39C840.276 252.818 852.089 253.011 879.051 253.025C906.654 253.035 917.525 253.218 916.776 253.656C915.866 254.187 915.832 254.401 916.525 255.232C917.456 256.354 917.483 259.168 916.576 260.828C916.228 261.466 915.752 263.16 915.521 264.595C915.29 266.03 914.901 267.461 914.653 267.782C914.408 268.1 913.498 271.359 912.629 275.023C911.76 278.69 910.85 282.208 910.605 282.847C909.453 285.837 908.857 287.766 908.005 291.25C906.361 297.956 906.336 298.325 907.481 299.167C908.364 299.815 900.286 299.939 857.781 299.939C829.864 299.939 794.096 300.115 778.292 300.326C752.571 300.671 749.596 300.619 749.899 299.819Z" fill="#80A1BA" stroke="#80A1BA"/>
<path d="M496.837 299.305C491.337 298.38 487.545 296.548 483.742 292.971C479.546 289.028 477.205 284.792 476.339 279.566C475.45 274.233 477.332 264.057 485.607 229.388C489.389 213.537 493.082 197.896 493.813 194.63L495.14 188.689H525.871C542.772 188.689 556.601 188.838 556.601 189.021C556.601 189.2 553.884 199.956 550.564 212.92C547.244 225.887 544.234 237.871 543.878 239.557C542.551 245.874 545.327 250.938 550.957 252.459C552.577 252.897 558.156 253.052 567.565 252.918C583.939 252.687 584.018 252.663 586.4 247.433C587.19 245.698 590.945 231.844 594.741 216.642C598.537 201.443 601.719 188.934 601.809 188.841C601.895 188.752 615.7 188.748 632.48 188.831L662.993 188.979L657.639 209.839C652.984 227.97 636.394 293.889 635.363 298.346L634.994 299.939L567.403 299.87C530.225 299.836 498.471 299.581 496.837 299.305Z" fill="#80A1BA" stroke="#80A1BA"/>
<path d="M662.924 299.532C663.321 298.287 669.468 273.384 682.07 222.006C686.37 204.478 689.986 189.814 690.107 189.414C690.283 188.845 697.106 188.689 721.689 188.689H753.043L750.813 196.658C748.292 205.644 727.13 290.729 726.026 296.317L725.309 299.939H698.413C683.618 299.939 669.499 300.112 667.034 300.319C662.728 300.688 662.569 300.657 662.924 299.532Z" fill="#80A1BA" stroke="#80A1BA"/>
<path d="M77.8688 295.448C78.3481 293.616 80.7478 283.123 83.2026 272.129L87.6675 252.138L129.989 251.828C162.561 251.59 172.846 251.345 174.621 250.765C184.044 247.674 193.071 238.536 194.315 230.83L194.653 228.739L160.996 228.519C131.462 228.326 126.883 228.177 123.594 227.301C112.171 224.262 103.907 216.735 101.335 207.028C100.842 205.172 100.542 200.925 100.538 195.789L100.531 187.53H182.186C247.439 187.53 263.723 187.675 263.254 188.255C262.934 188.655 261.844 192.622 260.837 197.072C259.827 201.522 258.858 205.396 258.686 205.679C258.513 205.962 258.286 207.511 258.179 209.118C258.076 210.726 257.717 212.316 257.386 212.65C257.055 212.985 256.783 214.065 256.783 215.055C256.783 216.041 256.548 217.097 256.259 217.401C255.366 218.342 253.393 225.821 252.211 232.755C251.59 236.404 250.677 240.358 250.184 241.544C249.691 242.728 249.287 244.294 249.287 245.022C249.291 246.226 248.677 248.437 245.129 259.958C243.233 266.119 241.412 269.338 237.016 274.298C231.479 280.553 225.756 284.796 217.574 288.725C215.83 289.56 214.013 290.474 213.54 290.75C210.279 292.644 205.583 294.758 203.952 295.069C202.886 295.269 202.145 295.638 202.297 295.89C202.762 296.642 195.408 297.67 185.589 298.222C180.507 298.504 153.997 298.749 126.676 298.76L77 298.78L77.8688 295.448Z" fill="#80A1BA" stroke="#80A1BA"/>
<path d="M695.855 165.077C696.086 164.521 698.737 154.024 701.75 141.757C704.76 129.487 707.315 119.121 707.429 118.724C707.584 118.155 714.293 118 738.494 118C755.471 118 769.358 118.207 769.358 118.459C769.358 118.711 768.731 121.125 767.962 123.819C767.193 126.514 765.228 133.934 763.597 140.309C761.966 146.68 760.394 152.831 760.098 153.969C759.687 155.57 759.28 156.035 758.319 155.997C757.25 155.96 756.974 156.442 756.371 159.43C755.667 162.914 755.774 164.352 756.736 164.352C757.019 164.352 757.25 164.746 757.25 165.222C757.25 165.984 753.433 166.091 726.34 166.091C697.13 166.091 695.455 166.036 695.855 165.077Z" fill="#80A1BA" stroke="#80A1BA"/>
<path d="M103.99 165.867C103.99 165.146 107.634 155.332 107.996 155.083C108.227 154.925 109.147 153.49 110.047 151.896C113.974 144.935 123.194 133.661 124.983 133.634C125.328 133.63 126.638 132.578 127.897 131.295C129.152 130.015 132.006 128.052 134.237 126.934C136.468 125.82 138.685 124.406 139.161 123.799C139.661 123.161 142.215 122.053 145.215 121.181C155.838 118.083 157.303 118.024 225.397 118.01L288.285 118L288.127 120.001C288.041 121.101 287.561 122.471 287.065 123.043C281.493 129.456 273.174 139.426 268.309 145.521C265.002 149.664 260.537 155.107 258.386 157.615C254.597 162.031 253.7 163.976 255.197 164.515C255.593 164.659 253.973 164.932 251.594 165.122C246.501 165.532 103.99 166.25 103.99 165.867Z" fill="#80A1BA" stroke="#80A1BA"/>
<path d="M301.756 165.787C301.756 165.622 302.39 165.242 303.166 164.946C303.942 164.649 305.035 163.676 305.597 162.786C309.538 156.525 318.361 146.49 323.953 141.909C330.255 136.749 335.644 132.885 340.364 130.15C343.23 128.487 345.574 126.928 345.574 126.683C345.574 126.214 352.618 123.316 357.393 121.826C367.778 118.583 369.112 118.428 388.817 118.148C413.72 117.8 422.471 118.838 433.879 123.495C442.116 126.859 450.625 133.42 455.725 140.343C459.935 146.063 464.131 156.301 465.268 163.628L465.651 166.091H383.703C338.63 166.091 301.756 165.957 301.756 165.787Z" fill="#80A1BA" stroke="#80A1BA"/>
<path d="M500.915 165.077C501.474 163.311 509.183 130.722 510.58 124.23L511.917 118.003L543.234 118C572.916 118 574.536 118.052 574.23 119.025C573.45 121.494 564.645 155.577 563.497 160.568L562.224 166.091H531.411C502.325 166.091 500.615 166.036 500.915 165.077Z" fill="#80A1BA" stroke="#80A1BA"/>
<path d="M608.018 165.315C608.122 164.884 610.801 154.069 613.973 141.281L619.737 118.024L650.44 118.014C674.92 118.003 681.143 118.148 681.143 118.738C681.143 119.142 678.709 128.877 675.733 140.371C672.754 151.861 670.137 162.352 669.917 163.68L669.51 166.091H638.673C613.149 166.091 607.863 165.957 608.018 165.315Z" fill="#80A1BA" stroke="#80A1BA"/>
<path d="M410.152 291.319C410.152 290.622 411.334 289.732 412.91 289.246C413.63 289.025 414.903 288.207 415.73 287.438C416.561 286.665 417.492 286.034 417.799 286.034C418.106 286.034 419.23 285.317 420.295 284.44C421.357 283.564 423.398 281.932 424.829 280.818C427.387 278.821 433.676 272.639 436.024 269.811C440.403 264.533 442.144 262.142 443.93 258.944C445.043 256.954 446.216 255.326 446.536 255.326C446.857 255.326 446.978 255.095 446.805 254.812C446.633 254.532 447.65 251.81 449.067 248.764C450.481 245.722 451.812 242.103 452.018 240.73C452.229 239.354 452.656 237.902 452.973 237.498C453.587 236.715 454.901 231.865 455.708 227.408C455.976 225.914 456.621 223.048 457.138 221.033C457.656 219.018 458.311 216.459 458.586 215.345C458.866 214.227 459.779 210.577 460.621 207.231C461.459 203.885 462.451 199.797 462.824 198.145C463.2 196.492 463.693 194.95 463.927 194.716C464.817 193.819 464.344 191.046 463.196 190.428C461.193 189.352 461.938 188.689 465.148 188.689H468.251L466.858 193.471C466.089 196.099 463.255 207.235 460.562 218.215C454.828 241.572 453.325 246.336 449.015 254.801C441.196 270.169 431.349 280.48 416.192 289.18C411.655 291.785 410.152 292.316 410.152 291.319Z" fill="#80A1BA" stroke="#80A1BA"/>
<path d="M202.311 295.907C202.149 295.645 202.886 295.269 203.952 295.069C205.583 294.758 210.279 292.644 213.54 290.75C214.013 290.474 215.83 289.56 217.574 288.725C225.756 284.796 231.479 280.553 237.016 274.298C241.412 269.338 243.233 266.119 245.129 259.958C248.677 248.437 249.291 246.226 249.287 245.022C249.287 244.294 249.69 242.728 250.184 241.544C250.677 240.358 251.59 236.404 252.211 232.755C253.393 225.821 255.366 218.342 256.259 217.401C256.548 217.097 256.783 216.041 256.783 215.055C256.783 214.065 257.055 212.985 257.386 212.65C257.717 212.316 258.076 210.726 258.179 209.118C258.286 207.511 258.513 205.962 258.686 205.679C258.858 205.396 259.827 201.522 260.837 197.072C262.72 188.758 263.216 187.53 264.702 187.53C265.306 187.53 265.471 187.924 265.25 188.834C265.078 189.552 262.216 201.091 258.896 214.475C255.572 227.86 251.766 243.504 250.432 249.24C247.863 260.3 245.85 265.957 242.722 270.945C236.623 280.67 220.839 291.329 206.772 295.227C204.479 295.865 202.473 296.169 202.311 295.907Z" fill="#80A1BA" stroke="#80A1BA"/>
<path d="M906.788 298.48C906.605 297.997 906.599 297.021 906.774 296.307C906.95 295.596 907.509 293.32 908.012 291.25C908.857 287.769 909.45 285.851 910.605 282.847C910.85 282.208 911.76 278.69 912.629 275.023C913.498 271.359 914.408 268.1 914.653 267.782C914.901 267.461 915.29 266.03 915.521 264.595C915.752 263.16 916.228 261.466 916.576 260.828C917.487 259.165 917.456 256.354 916.518 255.226C915.814 254.38 915.863 254.177 916.876 253.632C918.069 252.99 920.997 252.763 920.997 253.315C920.997 253.484 920.207 256.288 919.242 259.545C916.907 267.413 909.67 294.441 909.164 297.187C908.75 299.415 907.419 300.14 906.788 298.48Z" fill="#80A1BA" stroke="#80A1BA"/>
<path d="M388.244 242.835C388.248 242.535 388.779 241.503 389.427 240.548C390.078 239.592 391.375 237.312 392.316 235.48C394.071 232.051 394.971 231.044 394.016 233.576C392.668 237.132 388.234 244.249 388.244 242.835Z" fill="#80A1BA" stroke="#80A1BA"/>
<path d="M303.004 164.366C303.111 164.052 304.838 161.465 306.841 158.612C315.761 145.921 328.832 134.672 343.254 127.279C347.701 124.999 345.536 127.148 340.365 130.15C335.644 132.885 330.256 136.749 323.953 141.909C318.305 146.539 311.303 154.528 304.921 163.628C304.014 164.925 302.635 165.453 303.004 164.366Z" fill="#80A1BA" stroke="#80A1BA"/>
<path d="M840.98 250.255C841.104 250.013 841.625 248.896 842.138 247.768C842.762 246.401 845.272 243.952 849.648 240.447C853.264 237.55 856.85 234.825 857.619 234.386C858.388 233.952 859.536 233.155 860.17 232.62C860.805 232.082 862.405 230.909 863.725 230.012C865.049 229.115 867.252 227.408 868.628 226.218C872.42 222.927 880.65 216.535 882.019 215.814C883.302 215.138 885.343 213.489 890.297 209.132C893.159 206.614 897.452 203.174 902.996 198.966C908.191 195.016 913.408 190.525 913.125 190.242C912.963 190.08 897.493 189.914 878.744 189.876C859.994 189.838 844.531 189.679 844.379 189.528C843.131 188.275 848.151 188.113 884.046 188.251L922.848 188.4L911.688 197.179C886.701 216.838 871.348 228.595 851.396 243.349C842.093 250.227 840.428 251.331 840.98 250.255Z" fill="#80A1BA" stroke="#80A1BA"/>
<path d="M933.971 163.773C933.454 162.935 934.254 157.902 935.122 156.505C935.529 155.853 936.136 153.548 936.47 151.385C936.808 149.222 937.325 147.149 937.622 146.777C937.922 146.408 938.346 144.928 938.567 143.496C939.015 140.598 941.059 132.619 942.949 126.4C943.625 124.171 944.349 121.432 944.559 120.318C944.845 118.807 945.269 118.241 946.231 118.103C946.941 118.003 947.521 118.162 947.521 118.459C947.521 118.752 946.124 123.923 944.421 129.943C942.714 135.962 939.925 146.166 938.222 152.613C936.519 159.064 934.946 164.346 934.726 164.349C934.505 164.352 934.167 164.094 933.971 163.773Z" fill="#80A1BA" stroke="#80A1BA"/>
<path d="M337.854 236.142C336.655 232.32 337.427 225.307 339.758 218.818C340.044 218.025 340.464 216.849 340.695 216.214C340.923 215.576 341.188 213.803 341.282 212.274C341.378 210.75 341.995 208.576 342.657 207.452C343.319 206.327 343.743 205.22 343.605 204.992C343.464 204.765 343.854 202.764 344.467 200.546C346.019 194.94 346.795 190.883 346.395 190.48C346.209 190.293 337.32 190.073 326.642 189.993C306.831 189.842 303.194 189.631 303.79 188.662C304.2 187.996 348.836 187.896 349.243 188.558C349.394 188.807 347.201 197.996 344.371 208.983C341.537 219.971 339.113 230.616 338.978 232.637C338.737 236.339 338.32 237.633 337.854 236.142Z" fill="#80A1BA" stroke="#80A1BA"/>
<path d="M755.946 163.628C755.795 163.231 755.981 161.341 756.36 159.43C756.919 156.629 757.267 155.953 758.16 155.953C759.453 155.953 759.456 155.997 758.401 160.734C757.653 164.097 756.598 165.342 755.946 163.628Z" fill="#80A1BA" stroke="#80A1BA"/>
<path d="M388.479 240.078C392.32 234.324 394.661 227.777 398.653 211.654C400.698 203.409 402.446 197.182 402.542 197.821C402.639 198.455 400.994 205.855 398.888 214.258C394.943 230.005 392.678 236.118 388.892 241.272C386.076 245.104 385.748 244.166 388.479 240.078Z" fill="#80A1BA" stroke="#80A1BA"/>
<path d="M105.744 159.064C105.706 157.691 108.437 150.592 110.164 147.549C112.768 142.979 117.077 137.483 119.936 135.096L122.708 132.782L119.484 136.6C113.974 143.127 110.099 149.409 107.189 156.532C106.406 158.443 105.755 159.582 105.744 159.064Z" fill="#80A1BA" stroke="#80A1BA"/>
<path d="M254.476 163.266C254.476 162.666 256.234 160.123 258.386 157.615C260.537 155.107 265.002 149.664 268.309 145.521C273.191 139.405 281.886 128.987 287.092 123.016C287.603 122.429 288.061 121.125 288.113 120.122C288.196 118.486 288.413 118.269 290.154 118.104C293.657 117.765 293.533 118.797 289.516 123.326C284.682 128.78 266.499 150.789 260.53 158.409C255.993 164.201 254.476 165.418 254.476 163.266Z" fill="#80A1BA" stroke="#80A1BA"/>
<path d="M763.594 249.289C763.594 249.089 764.214 248.685 764.973 248.395C765.731 248.106 769.3 245.853 772.899 243.393C785.508 234.776 836.218 197.32 840.132 193.736C841.383 192.588 842.49 192.65 841.766 193.829C840.77 195.447 786.029 235.918 772.53 245.015C767.362 248.499 763.594 250.3 763.594 249.289Z" fill="#80A1BA" stroke="#80A1BA"/>
<path d="M108.317 154.038C109.334 150.492 115.602 140.895 120.398 135.531C123.452 132.116 130.934 126.886 135.947 124.658C140.791 122.505 139.64 124.182 134.475 126.8C132.1 128.004 129.134 130.032 127.883 131.309C126.635 132.582 125.345 133.63 125.018 133.634C124.29 133.647 118.136 139.974 115.553 143.372C114.512 144.738 112.371 147.998 110.796 150.613C109.22 153.231 108.106 154.773 108.317 154.038Z" fill="#80A1BA" stroke="#80A1BA"/>
<path d="M785.722 164.86C787.039 160.22 796.531 123.55 797.062 121.043L797.706 118H871.383H945.059L944.614 120.173C944.369 121.367 943.614 124.171 942.942 126.4C941.042 132.692 939.012 140.619 938.567 143.496C938.346 144.928 937.922 146.408 937.622 146.777C937.325 147.149 936.808 149.222 936.47 151.385C936.136 153.548 935.529 155.853 935.122 156.505C933.988 158.326 933.471 163.111 934.302 164.114C934.685 164.58 934.822 165.142 934.605 165.36C934.384 165.581 900.71 165.863 859.77 165.994L785.332 166.232L785.722 164.86Z" fill="#80A1BA" stroke="#80A1BA"/>
</svg>
